<svg width="38" height="38" viewBox="0 0 38 38" fill="none" xmlns="http://www.w3.org/2000/svg">
<path d="M2.68409 19.0006C2.68409 25.4714 6.40174 31.0471 11.8404 33.6631L4.1306 12.3926C3.23549 14.4572 2.68409 16.6591 2.68409 19.0006ZM30.0158 18.1723C30.0158 16.1757 29.2579 14.7305 28.6385 13.6969C27.8126 12.3197 27.056 11.2181 27.056 9.84214C27.056 8.32768 28.2268 6.94921 29.8093 6.94921H30.0158C27.1227 4.26893 23.2678 2.684 19.0124 2.684C13.298 2.75323 8.34279 5.64369 5.38177 10.0498H6.41411C8.13509 10.0498 10.7512 9.84338 10.7512 9.84338C11.6463 9.77415 11.7155 11.0821 10.8748 11.2206C10.8748 11.2206 9.9797 11.3442 9.01659 11.3442L14.951 28.9676L18.5302 18.2984L15.9833 11.3455L14.2624 11.2218C13.3673 11.1526 13.5045 9.84462 14.3316 9.84462C14.3316 9.84462 17.0169 10.0511 18.5994 10.0511C20.3204 10.0511 22.9365 9.84462 22.9365 9.84462C23.8316 9.77538 23.9008 11.0834 23.0601 11.2218C23.0601 11.2218 22.165 11.3455 21.2019 11.3455L27.1363 28.9009L28.7881 23.4612C29.4767 21.1889 30.0269 19.6064 30.0269 18.1599L30.0158 18.1723ZM19.2757 20.4471L14.3885 34.6274C15.835 35.0403 17.4175 35.316 19 35.316C20.9287 35.316 22.7177 34.9723 24.4399 34.4209C24.3706 34.3517 24.3706 34.2973 24.3162 34.2145L19.2757 20.4471ZM33.3205 11.2243L33.4441 12.876C33.4441 14.5277 33.1684 16.3871 32.2053 18.7274L27.26 33.1142C32.0792 30.2917 35.3827 25.0597 35.3827 19.0019C35.3134 16.1794 34.5568 13.5622 33.318 11.2231L33.3205 11.2243ZM19 0C8.53566 0 0 8.53662 0 18.9994C0 29.4621 8.53566 38 19 38C29.4643 38 38 29.4634 38 19.0006C38 8.53785 29.4643 0 19 0ZM19 37.1729C9.01783 37.1729 0.895106 29.0505 0.895106 18.9994C0.895106 9.00517 9.01783 0.895078 19 0.895078C28.9822 0.895078 37.1049 9.01753 37.1049 18.9994C37.1049 29.0505 28.9822 37.1729 19 37.1729Z" fill="#F9F9F9"/>
</svg>
