<svg width="42" height="37" viewBox="0 0 42 37" fill="none" xmlns="http://www.w3.org/2000/svg">
<path d="M24.4367 18.4652C24.4367 20.4841 22.8 22.1208 20.781 22.1208C18.7621 22.1208 17.1254 20.4841 17.1254 18.4652C17.1254 16.4462 18.7621 14.8095 20.781 14.8095C22.8 14.8095 24.4367 16.4462 24.4367 18.4652Z" fill="#F9F9F9" stroke="#F9F9F9" stroke-width="0.06928"/>
<path fill-rule="evenodd" clip-rule="evenodd" d="M20.781 10.9622C25.7357 10.9622 30.3385 11.6731 33.809 12.8679C37.9904 14.3074 40.5613 16.4894 40.5613 18.4653C40.5613 20.5242 37.8366 22.8423 33.3463 24.33C29.9515 25.4548 25.4843 26.0419 20.781 26.0419C15.9588 26.0419 11.3925 25.4908 7.9595 24.3177C3.61608 22.8331 1 20.485 1 18.4653C1 16.5055 3.45469 14.3403 7.57736 12.903C11.0608 11.6885 15.7772 10.9622 20.7803 10.9622H20.781Z" stroke="#F9F9F9" stroke-width="1.66272"/>
<path fill-rule="evenodd" clip-rule="evenodd" d="M14.2494 14.7354C16.7247 10.4433 19.6399 6.81122 22.4087 4.4017C25.7446 1.49858 28.9193 0.361642 30.6308 1.34859C32.4145 2.37718 33.0613 5.89562 32.1069 10.5286C31.386 14.0313 29.6622 18.1944 27.3126 22.2687C24.9035 26.446 22.145 30.1264 19.4139 32.5136C15.9581 35.5345 12.617 36.6278 10.8674 35.6187C9.16961 34.6404 8.52037 31.4317 9.33482 27.1422C10.023 23.5179 11.7499 19.0694 14.2486 14.7353L14.2494 14.7354Z" stroke="#F9F9F9" stroke-width="1.66272"/>
<path fill-rule="evenodd" clip-rule="evenodd" d="M14.2556 22.2797C11.7733 17.9925 10.0833 13.6521 9.37784 10.05C8.52866 5.70995 9.12906 2.39166 10.839 1.40184C12.6209 0.370235 15.9923 1.56691 19.5294 4.70762C22.2037 7.08213 24.9499 10.654 27.3064 14.7245C29.7224 18.8978 31.5331 23.1258 32.2375 26.684C33.1288 31.1868 32.4074 34.6273 30.6594 35.6392C28.9634 36.6211 25.8597 35.5815 22.5502 32.7336C19.754 30.3274 16.7624 26.6095 14.2556 22.2796V22.2797Z" stroke="#F9F9F9" stroke-width="1.66272"/>
</svg>
