<svg width="843" height="150" viewBox="0 0 843 150" fill="none" xmlns="http://www.w3.org/2000/svg">
<path d="M0.96 148V144.22L18.6 137.02L70.62 0.399991H73.5L122.64 141.52L139.2 144.22V148H86.28V144.22L101.04 141.88L85.74 99.22H37.86L23.28 137.02L39.48 144.22V148H0.96ZM39.3 95.44H84.48L62.88 32.08L39.3 95.44ZM199.995 149.8C192.915 149.8 186.795 148 181.635 144.4C176.595 140.68 172.575 135.64 169.575 129.28V148H138.975V144.4L151.575 142.6V9.39999L138.975 7.59999V4H169.575V73.66C172.575 67.3 176.595 62.32 181.635 58.72C186.795 55 192.915 53.14 199.995 53.14C208.515 53.14 216.015 55.12 222.495 59.08C228.975 63.04 234.015 68.68 237.615 76C241.215 83.2 243.015 91.66 243.015 101.38C243.015 111.1 241.215 119.62 237.615 126.94C234.015 134.14 228.975 139.78 222.495 143.86C216.015 147.82 208.515 149.8 199.995 149.8ZM198.195 145.3C214.875 145.3 223.215 133.66 223.215 110.38V92.38C223.215 69.22 214.875 57.64 198.195 57.64C192.915 57.64 188.115 59.2 183.795 62.32C179.475 65.32 176.055 69.4 173.535 74.56C171.015 79.6 169.695 85.12 169.575 91.12V110.38C169.575 116.5 170.775 122.26 173.175 127.66C175.695 133.06 179.115 137.38 183.435 140.62C187.875 143.74 192.795 145.3 198.195 145.3ZM305.048 149.8C296.408 149.8 288.548 147.82 281.468 143.86C274.388 139.78 268.748 134.08 264.548 126.76C260.468 119.32 258.428 110.86 258.428 101.38C258.428 91.9 260.468 83.5 264.548 76.18C268.748 68.86 274.388 63.22 281.468 59.26C288.548 55.18 296.408 53.14 305.048 53.14C313.688 53.14 321.548 55.18 328.628 59.26C335.708 63.22 341.288 68.86 345.368 76.18C349.568 83.5 351.668 91.9 351.668 101.38C351.668 110.86 349.568 119.32 345.368 126.76C341.288 134.08 335.708 139.78 328.628 143.86C321.548 147.82 313.688 149.8 305.048 149.8ZM305.048 145.84C313.928 145.84 320.588 142.6 325.028 136.12C329.588 129.64 331.868 121.06 331.868 110.38V92.38C331.868 81.7 329.588 73.18 325.028 66.82C320.588 60.34 313.928 57.1 305.048 57.1C296.168 57.1 289.448 60.34 284.888 66.82C280.448 73.18 278.228 81.7 278.228 92.38V110.38C278.228 121.06 280.448 129.64 284.888 136.12C289.448 142.6 296.168 145.84 305.048 145.84ZM402.88 149.8C394.24 149.8 387.4 147.64 382.36 143.32C377.44 139 374.98 132.58 374.98 124.06V60.16L362.38 58.36V54.76H392.98V123.7C392.98 129.82 394.24 134.62 396.76 138.1C399.28 141.58 403.18 143.32 408.46 143.32C413.98 143.32 419.26 141.52 424.3 137.92C429.46 134.2 434.02 129.64 437.98 124.24V60.16L425.38 58.36V54.76H455.98V142.6L468.58 144.4V148H437.98V130.72C433.66 136.72 428.44 141.4 422.32 144.76C416.32 148.12 409.84 149.8 402.88 149.8ZM515.171 149.8C507.251 149.8 500.891 147.82 496.091 143.86C491.411 139.9 489.071 133.6 489.071 124.96V60.16L476.291 58.36V54.76H489.071V39.82L507.071 35.32V54.76H530.471V58.36L507.071 60.16V124.6C507.071 137.32 511.631 143.68 520.751 143.68C522.671 143.68 524.471 143.38 526.151 142.78C527.951 142.18 529.331 141.58 530.291 140.98C531.371 140.38 532.031 139.96 532.271 139.72L534.611 142.6C529.211 147.4 522.731 149.8 515.171 149.8ZM583.38 144.4L595.98 142.6V60.16L583.38 58.36V54.76H613.98V71.32C618.3 65.68 623.16 61.24 628.56 58C634.08 54.76 640.02 53.14 646.38 53.14C653.7 53.14 659.64 54.76 664.2 58C668.88 61.12 671.82 65.86 673.02 72.22C677.34 66.34 682.26 61.72 687.78 58.36C693.3 54.88 699.36 53.14 705.96 53.14C714.48 53.14 721.08 55.3 725.76 59.62C730.56 63.82 732.96 70.24 732.96 78.88V142.6L745.56 144.4V148H704.16V144.4L714.96 142.6V79.24C714.96 72.88 713.82 68.02 711.54 64.66C709.26 61.3 705.54 59.62 700.38 59.62C695.46 59.62 690.66 61.3 685.98 64.66C681.42 68.02 677.28 72.34 673.56 77.62V142.6L684.36 144.4V148H644.58V144.4L655.38 142.6V79.24C655.38 72.88 654.24 68.02 651.96 64.66C649.68 61.3 645.96 59.62 640.8 59.62C635.88 59.62 631.08 61.3 626.4 64.66C621.84 68.02 617.7 72.34 613.98 77.62V142.6L624.78 144.4V148H583.38V144.4ZM804.112 149.8C795.232 149.8 787.192 147.82 779.992 143.86C772.792 139.78 767.092 134.08 762.892 126.76C758.692 119.44 756.592 110.98 756.592 101.38C756.592 91.78 758.632 83.38 762.712 76.18C766.912 68.86 772.492 63.22 779.452 59.26C786.532 55.18 794.392 53.14 803.032 53.14C810.592 53.14 817.372 54.82 823.372 58.18C829.372 61.54 834.052 66.22 837.412 72.22C840.772 78.1 842.512 84.88 842.632 92.56H776.392V110.38C776.392 120.94 778.732 129.52 783.412 136.12C788.212 142.6 795.112 145.84 804.112 145.84C812.392 145.84 819.712 143.5 826.072 138.82C832.432 134.14 836.332 128.08 837.772 120.64H841.912C840.232 129.52 835.972 136.6 829.132 141.88C822.292 147.16 813.952 149.8 804.112 149.8ZM822.832 88.06C822.832 77.62 821.212 69.88 817.972 64.84C814.732 59.68 809.692 57.1 802.852 57.1C794.812 57.1 788.572 59.92 784.132 65.56C779.692 71.2 777.172 78.7 776.572 88.06H822.832Z" fill="#F9F9F9" fill-opacity="0.05"/>
</svg>
